<?xml version="1.0" encoding="UTF-8" standalone="no"?>
<!-- Created with Inkscape (http://www.inkscape.org/) -->

<svg
   xmlns:dc="http://purl.org/dc/elements/1.1/"
   xmlns:cc="http://creativecommons.org/ns#"
   xmlns:rdf="http://www.w3.org/1999/02/22-rdf-syntax-ns#"
   xmlns:svg="http://www.w3.org/2000/svg"
   xmlns="http://www.w3.org/2000/svg"
   xmlns:sodipodi="http://sodipodi.sourceforge.net/DTD/sodipodi-0.dtd"
   xmlns:inkscape="http://www.inkscape.org/namespaces/inkscape"
   width="287.0343mm"
   height="161.40303mm"
   viewBox="0 0 1017.0507 571.9005"
   id="svg3785"
   version="1.1"
   inkscape:version="0.92.4 (unknown)"
   sodipodi:docname="drawingXpa.svg">
  <defs
     id="defs3787" />
  <sodipodi:namedview
     id="base"
     pagecolor="#ffffff"
     bordercolor="#666666"
     borderopacity="1.0"
     inkscape:pageopacity="0"
     inkscape:pageshadow="2"
     inkscape:zoom="0.81575661"
     inkscape:cx="455.45343"
     inkscape:cy="274.30462"
     inkscape:document-units="px"
     inkscape:current-layer="layer1"
     showgrid="false"
     inkscape:window-width="1319"
     inkscape:window-height="744"
     inkscape:window-x="47"
     inkscape:window-y="24"
     inkscape:window-maximized="1"
     fit-margin-top="0"
     fit-margin-left="0"
     fit-margin-right="0"
     fit-margin-bottom="0" />
  <metadata
     id="metadata3790">
    <rdf:RDF>
      <cc:Work
         rdf:about="">
        <dc:format>image/svg+xml</dc:format>
        <dc:type
           rdf:resource="http://purl.org/dc/dcmitype/StillImage" />
        <dc:title></dc:title>
      </cc:Work>
    </rdf:RDF>
  </metadata>
  <g
     inkscape:label="Camada 1"
     inkscape:groupmode="layer"
     id="layer1"
     transform="translate(-18.745767,-394.97765)">
    <path
       inkscape:connector-curvature="0"
       style="fill:#ffffff;stroke-width:0.98518211"
       d="m 464.6722,956.18489 c -8.18318,-32.70216 -20.09001,-52.7044 -48.12234,-80.8405 -23.51703,-23.60405 -53.61883,-48.39963 -84.72564,-69.79049 -23.30677,-16.02711 -47.40195,-30.64408 -102.6728,-62.28482 -27.2478,-15.5985 -56.00335,-32.26386 -63.90126,-37.03419 C 101.13063,667.50672 63.330094,632.18082 43.205491,592.17989 36.210329,578.27591 29.549738,557.31405 29.549738,549.20326 c 0,-2.51212 -0.753132,-7.83026 -1.673645,-11.81811 -1.250876,-5.41915 -1.270104,-9.70885 -0.07612,-16.98237 0.878668,-5.35243 2.269744,-13.96162 3.091274,-19.13149 5.261535,-33.11078 31.754303,-77.46194 59.306028,-99.2833 6.678429,-5.28942 6.694742,-4.99808 0.542476,9.68854 -9.116822,21.76359 -14.149317,50.42147 -14.358039,81.76272 -0.177512,26.65695 1.159914,34.84869 9.458229,57.93135 12.095416,33.64475 31.687529,61.14629 72.845799,102.25399 20.5866,20.56128 30.28446,28.71349 71.90159,60.44183 26.45801,20.1712 61.35239,45.61905 77.54312,56.55077 16.19071,10.9317 35.57647,24.21447 43.07949,29.51724 48.22895,34.08595 82.97153,73.42433 112.44142,127.31541 4.8634,8.89362 9.61304,16.17019 10.55479,16.17019 1.80769,0 6.39292,-3.94839 34.21945,-29.46681 9.49098,-8.70375 21.13349,-19.04281 25.87221,-22.97575 4.73875,-3.93291 8.8313,-7.63539 9.09457,-8.22774 0.26328,-0.59234 1.21884,-1.07698 2.12351,-1.07698 3.23996,0 21.94516,-7.7616 28.98943,-12.02898 11.3821,-6.8952 25.31898,-18.72307 31.97464,-27.1361 6.21933,-7.86149 15.1943,-13.5819 43.32368,-27.61335 11.83122,-5.90164 11.35932,-5.8908 33.76363,-0.77514 7.06815,1.61388 14.66093,2.93434 16.87281,2.93434 5.1693,0 5.21916,2.54616 0.0725,3.71123 -2.17189,0.4917 -10.08774,3.01608 -17.59079,5.60979 -35.68508,12.33583 -79.79305,34.31506 -120.62258,60.10683 -18.85456,11.91033 -55.17851,39.88538 -64.61923,49.76684 -0.39491,0.41331 -5.23276,4.61929 -10.75082,9.34659 -5.51801,4.72732 -11.97994,10.36915 -14.35982,12.53741 -2.37987,2.16828 -4.78677,3.9453 -5.34868,3.94896 -0.56188,0.006 -1.70884,-2.73967 -2.54877,-6.09628 z"
       id="path3819" />
    <path
       inkscape:connector-curvature="0"
       style="fill:#ffffff;stroke-width:0.98518211"
       d="m 485.8942,892.78312 c -13.36417,-3.59725 -25.43426,-15.39642 -33.19521,-32.4501 -10.76017,-23.64412 -17.49244,-66.36433 -14.03036,-89.03098 1.87432,-12.27134 10.00407,-38.90115 13.94897,-45.69113 0.14624,-0.25172 3.39859,1.76077 7.22747,4.47221 30.41045,21.53527 92.74968,50.51428 147.41937,68.52937 15.71415,5.17821 22.49118,8.04543 22.00583,9.31023 -1.6313,4.25115 -20.93815,28.06281 -30.36974,37.45585 -16.15723,16.09122 -39.25781,29.72198 -61.73068,36.42487 -5.52854,1.64896 -16.8369,5.24738 -25.12974,7.99653 -16.74158,5.54998 -16.64908,5.53943 -26.14591,2.98315 z"
       id="path3817" />
    <path
       inkscape:connector-curvature="0"
       style="fill:#ffffff;stroke-width:0.98518211"
       d="m 793.01203,808.20892 c 27.72895,-14.39931 41.92589,-35.34662 44.44736,-65.58082 2.13066,-25.54801 -6.61633,-47.57681 -27.69047,-69.73696 -24.67996,-25.9519 -76.45095,-51.92394 -120.38479,-60.39364 -10.69866,-2.0625 -18.8578,-2.39163 -47.38752,-1.91154 -74.12627,1.24735 -85.2115,0.2079 -106.26276,-9.96421 -17.43859,-8.4264 -28.50087,-19.44371 -33.36499,-33.22936 -6.16057,-17.45986 4.70044,-37.93126 28.64346,-53.98867 5.756,-3.86024 11.31935,-7.83133 12.36302,-8.82461 1.04363,-0.99328 3.81079,-1.80594 6.14924,-1.80594 3.54585,0 16.67011,-4.26603 31.01339,-10.08086 6.46649,-2.62156 28.68873,-4.63026 41.37832,-3.74026 27.1506,1.9042 51.58563,12.28716 70.45352,29.93719 18.78142,17.56901 27.96491,32.70959 37.474,61.78201 2.82842,8.64721 7.50583,13.32049 33.49346,33.4637 22.29783,17.28333 54.47086,48.86644 66.97908,65.75125 11.99185,16.18756 20.3998,31.20973 24.94074,44.56047 3.58122,10.52895 4.29105,14.87948 4.29105,26.29939 0,12.24635 -0.45331,14.63325 -4.3161,22.727 -5.27811,11.05918 -16.56711,21.84593 -29.14599,27.84931 -10.25774,4.89552 -32.57384,11.65586 -38.13878,11.55352 -3.09393,-0.0569 -2.1656,-0.91236 5.06476,-4.66697 z"
       id="path3815" />
    <path
       inkscape:connector-curvature="0"
       style="fill:#ffffff;stroke-width:0.98518211"
       d="m 830.82848,807.54049 c 0,-0.80494 1.62495,-1.87136 3.61098,-2.36982 1.98602,-0.49848 7.65459,-4.93033 12.59667,-9.84857 9.33458,-9.28937 16.37769,-21.49813 17.87305,-30.98155 0.4548,-2.88441 1.39544,-5.61934 2.09023,-6.07761 0.69477,-0.4583 4.95667,-0.96447 9.47083,-1.12482 40.59846,-1.44223 61.78541,-7.68709 82.16081,-24.21679 14.77409,-11.98569 22.65924,-23.66689 28.79376,-42.65518 2.5387,-7.858 3.02096,-12.1106 2.5325,-22.32811 l -0.60346,-12.62134 10.46394,9.47719 c 15.77001,14.2828 22.44581,24.80453 27.11721,42.73957 2.4759,9.50544 2.5966,16.56016 0.4567,26.72132 -6.6079,31.37879 -36.58509,53.8809 -86.82974,65.17786 -24.68743,5.55074 -109.73348,11.8345 -109.73348,8.10785 z"
       id="path3813" />
    <path
       inkscape:connector-curvature="0"
       style="fill:#ffffff;stroke-width:0.98518211"
       d="m 606.09703,785.68527 c -27.43758,-9.24664 -38.58821,-13.22526 -45.51604,-16.24033 -31.01436,-13.49779 -52.02505,-23.41653 -65.73368,-31.03148 -23.78967,-13.21481 -67.1715,-41.60098 -82.43919,-53.94263 -34.92022,-28.22783 -62.99063,-61.51946 -79.2398,-93.97879 -29.18466,-58.29917 -10.43438,-94.06306 55.37725,-105.62532 14.19835,-2.49447 45.63596,-2.85079 63.18324,-0.71614 41.95647,5.10409 59.92958,8.16711 78.76864,13.42394 13.10515,3.65684 12.50903,4.38769 -5.33787,6.54426 -18.94485,2.28922 -33.12757,6.39878 -49.73703,14.41174 -47.20446,22.773 -62.78055,66.55673 -37.31468,104.89004 9.58214,14.42379 21.41848,24.22815 40.59139,33.62288 24.67598,12.09127 36.1017,13.73922 95.25904,13.73951 51.20565,2.7e-4 64.65953,1.2039 80.75028,7.22421 26.61576,9.95824 42.59585,44.70509 34.62822,75.29489 -5.39885,20.72764 -17.23019,33.35021 -36.3954,38.82927 -12.36716,3.53564 -20.57869,2.4057 -46.84437,-6.44605 z"
       id="path3811" />
    <path
       inkscape:connector-curvature="0"
       style="fill:#ffffff;stroke-width:0.98518211"
       d="m 769.04249,771.92711 c -3.53287,-3.62902 -9.15388,-8.21433 -12.49133,-10.18959 -5.77047,-3.41521 -6.55855,-3.51525 -16.07086,-2.03937 -12.17472,1.88899 -13.04261,1.90368 -13.04261,0.22088 0,-0.73209 2.2616,-6.22748 5.02593,-12.21192 2.76422,-5.98446 5.02595,-12.02673 5.02595,-13.42731 0,-1.40057 -1.83105,-6.08274 -4.06901,-10.40481 -3.85315,-7.44146 -6.72969,-15.75623 -5.45088,-15.75623 0.32268,0 5.75587,0.98058 12.07376,2.17908 13.85608,2.62844 15.92183,2.01849 26.3573,-7.78241 8.14282,-7.64768 9.60672,-8.41705 10.51322,-5.52553 0.30949,0.98724 2.00475,6.64143 3.76721,12.56487 3.95805,13.30167 5.14749,15.25852 10.6179,17.4673 6.30523,2.54587 13.6438,7.43368 13.66046,9.09838 0.0122,0.7898 -4.594,4.02075 -10.22638,7.17992 -5.63228,3.15916 -11.13772,7.10637 -12.23437,8.77158 -1.0965,1.66523 -3.12755,8.29848 -4.51346,14.74056 l -2.51963,11.71286 z"
       id="path3774" />
  </g>
</svg>
