<?xml version="1.0" encoding="UTF-8" standalone="no"?>
<!-- Created with Inkscape (http://www.inkscape.org/) -->

<svg
   xmlns:dc="http://purl.org/dc/elements/1.1/"
   xmlns:cc="http://creativecommons.org/ns#"
   xmlns:rdf="http://www.w3.org/1999/02/22-rdf-syntax-ns#"
   xmlns:svg="http://www.w3.org/2000/svg"
   xmlns="http://www.w3.org/2000/svg"
   xmlns:sodipodi="http://sodipodi.sourceforge.net/DTD/sodipodi-0.dtd"
   xmlns:inkscape="http://www.inkscape.org/namespaces/inkscape"
   width="297mm"
   height="210mm"
   viewBox="0 0 297 210"
   version="1.1"
   id="svg55"
   inkscape:version="0.92.4 (unknown)"
   sodipodi:docname="x-pa.svg">
  <defs
     id="defs49" />
  <sodipodi:namedview
     id="base"
     pagecolor="#ffffff"
     bordercolor="#666666"
     borderopacity="1.0"
     inkscape:pageopacity="0.0"
     inkscape:pageshadow="2"
     inkscape:zoom="0.75847222"
     inkscape:cx="561.25984"
     inkscape:cy="396.85039"
     inkscape:document-units="mm"
     inkscape:current-layer="layer1"
     showgrid="false"
     inkscape:window-width="1319"
     inkscape:window-height="744"
     inkscape:window-x="47"
     inkscape:window-y="24"
     inkscape:window-maximized="1" />
  <metadata
     id="metadata52">
    <rdf:RDF>
      <cc:Work
         rdf:about="">
        <dc:format>image/svg+xml</dc:format>
        <dc:type
           rdf:resource="http://purl.org/dc/dcmitype/StillImage" />
        <dc:title></dc:title>
      </cc:Work>
    </rdf:RDF>
  </metadata>
  <g
     inkscape:label="Camada 1"
     inkscape:groupmode="layer"
     id="layer1"
     transform="translate(0,-87)">
    <path
       inkscape:connector-curvature="0"
       style="fill:#ffffff;stroke-width:0.49838036"
       d="m 96.58695,295.18027 c -6.760611,-1.81976 -12.866579,-7.78869 -16.792666,-16.41573 -5.443308,-11.961 -8.849016,-33.57216 -7.097635,-45.03867 0.948173,-6.20779 5.060829,-19.67917 7.056454,-23.11407 0.07399,-0.12733 1.719277,0.89072 3.65622,2.26238 15.383925,10.89419 46.919857,25.55399 74.575977,34.6674 7.9494,2.61952 11.37775,4.06999 11.13222,4.70981 -0.82523,2.15057 -10.59212,14.19632 -15.36334,18.94804 -8.17355,8.14016 -19.8596,15.03565 -31.22808,18.42647 -2.79677,0.83418 -8.5174,2.65454 -12.71256,4.04527 -8.46916,2.80759 -8.42237,2.80226 -13.22659,1.5091 z"
       id="path3817" />
    <path
       inkscape:connector-curvature="0"
       style="fill:#ffffff;stroke-width:0.49838036"
       d="m 251.95061,252.39618 c 14.02742,-7.28427 21.2093,-17.88101 22.48486,-33.17578 1.07784,-12.92415 -3.34705,-24.06799 -14.00796,-35.27828 -12.485,-13.12846 -38.67472,-26.2671 -60.89981,-30.55172 -5.4122,-1.04337 -9.53972,-1.20986 -23.97222,-0.96699 -37.49874,0.63099 -43.10649,0.10524 -53.75582,-5.04067 -8.82177,-4.26272 -14.41792,-9.83611 -16.87856,-16.80995 -3.11649,-8.83252 2.37784,-19.18852 14.49005,-27.31158 2.91182,-1.9528 5.72619,-3.961692 6.25416,-4.464165 0.52794,-0.502474 1.92778,-0.913579 3.11075,-0.913579 1.79376,0 8.43302,-2.158089 15.68893,-5.099679 3.27126,-1.326184 14.51296,-2.342327 20.93233,-1.892107 13.73484,0.963289 26.09594,6.215791 35.64076,15.14452 9.50108,8.88774 14.14678,16.54701 18.9572,31.25406 1.43084,4.37442 3.79704,6.73852 16.94357,16.9285 11.27994,8.74322 27.55551,24.72037 33.88313,33.26199 6.06638,8.1889 10.31978,15.78827 12.61692,22.5421 1.81167,5.32633 2.17075,7.52717 2.17075,13.30422 0,6.19515 -0.22932,7.40263 -2.18342,11.49706 -2.67008,5.59458 -8.3809,11.05134 -14.74427,14.08831 -5.18914,2.47653 -16.47833,5.89642 -19.2935,5.84465 -1.56515,-0.0288 -1.09552,-0.46154 2.56215,-2.36091 z"
       id="path3815" />
    <path
       inkscape:connector-curvature="0"
       style="fill:#ffffff;stroke-width:0.49838036"
       d="m 157.39472,241.00201 c -13.88002,-4.67767 -19.52086,-6.69035 -23.02548,-8.2156 -15.68943,-6.82821 -26.31825,-11.84587 -33.25313,-15.6981 C 89.081494,210.40324 67.135642,196.04335 59.412079,189.80002 41.746769,175.52021 27.546618,158.67877 19.326546,142.25836 4.562717,112.76619 14.04804,94.674075 47.340586,88.825013 c 7.182611,-1.261888 23.086156,-1.442152 31.962915,-0.362278 21.224779,2.582033 30.316939,4.131552 39.847199,6.790843 6.62957,1.849919 6.32801,2.219631 -2.70032,3.310596 -9.58374,1.158069 -16.758458,3.236996 -25.160786,7.290556 -23.879617,11.52032 -31.759199,33.66948 -18.876604,53.0614 4.847365,7.29665 10.835088,12.25643 20.534215,17.00901 12.483005,6.11668 18.263005,6.95035 48.189285,6.95049 25.90375,1.5e-4 32.70974,0.60903 40.84967,3.65456 13.46429,5.03763 21.54824,22.61524 17.51759,38.0899 -2.73114,10.48563 -8.71634,16.87109 -18.41157,19.64282 -6.25626,1.78859 -10.41028,1.21698 -23.69746,-3.2609 z"
       id="path3811" />
    <path
       inkscape:connector-curvature="0"
       style="fill:#000080;stroke-width:0.49838036"
       d="m 239.82497,234.04208 c -1.78719,-1.83585 -4.63072,-4.15545 -6.31906,-5.15467 -2.91915,-1.72769 -3.31782,-1.7783 -8.12987,-1.03169 -6.15891,0.95561 -6.59795,0.96303 -6.59795,0.11179 0,-0.37035 1.14409,-3.15034 2.5425,-6.17774 1.39835,-3.02739 2.54251,-6.08403 2.54251,-6.79254 0,-0.70852 -0.92628,-3.07712 -2.05842,-5.26355 -1.9492,-3.76446 -3.40439,-7.97071 -2.75746,-7.97071 0.16317,0 2.91176,0.49605 6.10782,1.10234 7.00946,1.32968 8.05448,1.02111 13.33354,-3.93693 4.11926,-3.86878 4.85981,-4.25799 5.31839,-2.79523 0.15663,0.49942 1.01416,3.35974 1.90574,6.35627 2.00228,6.729 2.604,7.71892 5.37134,8.8363 3.18967,1.28788 6.90208,3.76052 6.91051,4.60265 0.007,0.39953 -2.324,2.03399 -5.17329,3.63215 -2.84923,1.59815 -5.63431,3.59494 -6.18907,4.43733 -0.55469,0.8424 -1.58215,4.19801 -2.28326,7.4569 l -1.27462,5.92526 z"
       id="path3774" />
  </g>
</svg>
